<svg width="32" height="24" viewBox="0 0 32 24" fill="none" xmlns="http://www.w3.org/2000/svg">
<path fill-rule="evenodd" clip-rule="evenodd" d="M21.8923 6.66317C21.8923 9.99188 19.2386 12.661 15.9291 12.661C12.6196 12.661 9.96593 9.99188 9.96593 6.66317C9.96593 3.33317 12.6196 0.666626 15.9291 0.666626C19.2386 0.666626 21.8923 3.33317 21.8923 6.66317ZM15.9291 23.3333C11.0683 23.3333 6.91776 22.5627 6.91776 19.4802C6.91776 16.3964 11.0416 15.5978 15.9291 15.5978C20.7899 15.5978 24.9404 16.3684 24.9404 19.4521C24.9404 22.5346 20.8166 23.3333 15.9291 23.3333ZM24.4405 6.77136C24.4405 8.46825 23.9344 10.049 23.0464 11.3632C22.9551 11.4984 23.0363 11.6809 23.1974 11.7089C23.4194 11.7472 23.649 11.7689 23.8824 11.7753C26.2101 11.8365 28.2993 10.3297 28.8764 8.06125C29.7314 4.69171 27.221 1.66664 24.0245 1.66664C23.6769 1.66664 23.3445 1.70364 23.0211 1.76999C22.9767 1.7802 22.9297 1.80061 22.9044 1.84016C22.8739 1.88864 22.8968 1.95371 22.9272 1.99582C23.8875 3.3495 24.4405 5.00047 24.4405 6.77136ZM28.2955 14.1428C29.8595 14.4502 30.8882 15.078 31.3144 15.9902C31.6747 16.7391 31.6747 17.608 31.3144 18.3557C30.6624 19.7706 28.5606 20.2248 27.7437 20.3422C27.5749 20.3677 27.4392 20.221 27.457 20.0513C27.8743 16.1306 24.5547 14.2716 23.6959 13.8442C23.6591 13.8251 23.6515 13.7957 23.6553 13.7779C23.6579 13.7651 23.6731 13.7447 23.701 13.7409C25.5593 13.7064 27.5572 13.9616 28.2955 14.1428ZM8.12054 11.7752C8.35394 11.7688 8.58227 11.7484 8.80552 11.7088C8.96662 11.6807 9.0478 11.4983 8.95647 11.363C8.06853 10.0489 7.56241 8.46812 7.56241 6.77123C7.56241 5.00034 8.11547 3.34938 9.07571 1.99569C9.10615 1.95359 9.12772 1.88852 9.09854 1.84003C9.07317 1.80176 9.02497 1.78007 8.98184 1.76986C8.65711 1.70352 8.32477 1.66652 7.9772 1.66652C4.78061 1.66652 2.27028 4.69158 3.12651 8.06112C3.70367 10.3296 5.79287 11.8364 8.12054 11.7752ZM8.34696 13.7771C8.35077 13.7962 8.34316 13.8243 8.30764 13.8447C7.44761 14.2721 4.12798 16.1311 4.54531 20.0505C4.56307 20.2215 4.42861 20.3669 4.2599 20.3427C3.44299 20.2253 1.34111 19.7711 0.689108 18.3562C0.327589 17.6072 0.327589 16.7397 0.689108 15.9907C1.11532 15.0785 2.14279 14.4508 3.70684 14.142C4.44637 13.9621 6.44297 13.7069 8.30257 13.7414C8.33047 13.7452 8.34443 13.7656 8.34696 13.7771Z" fill="#DF4741"/>
</svg>
